<svg xmlns="http://www.w3.org/2000/svg" version="1.1" xmlns:xlink="http://www.w3.org/1999/xlink" width="512"
    height="512" x="0" y="0" viewBox="0 0 512.001 512.001" style="enable-background:new 0 0 512 512"
    xml:space="preserve" class="">
    <g>
        <path fill="#ffffff"
            d="M75.13 414.99v-76.43h11.76c20.2 0 38.48-11.98 46.54-30.5l28.06-64.44c4.87-11.2 17.9-16.32 29.09-11.45 16.37 7.13 26.14 23.12 26.14 39.91 0 5.79-1.16 11.68-3.62 17.33l-21.4 49.15h81.05c22.73 0 40.33 19.87 37.6 42.44l-4.13 33.99-117.747 42.216z"
            opacity="1" data-original="#ffddce" class=""></path>
        <path fill="#a9a9a9"
            d="M75.13 487.07v-72.08h231.09l-7.3 60.11c-2.08 17.05-16.56 29.87-33.73 29.87h-96.88c-11.44 0-22.68-3.09-32.51-8.95a63.531 63.531 0 0 0-32.51-8.95z"
            opacity="1" data-original="#ffbda9" class=""></path>
        <path fill="#ffffff"
            d="M436.87 24.931v72.08l-110.81 24.357-120.28-24.357 7.3-60.11c2.08-17.05 16.56-29.87 33.73-29.87h96.88c11.44 0 22.68 3.09 32.51 8.95a63.531 63.531 0 0 0 32.51 8.95z"
            opacity="1" data-original="#ffddce" class=""></path>
        <path fill="#a9a9a9"
            d="M436.87 97.011v76.43h-11.76c-20.2 0-38.48 11.98-46.54 30.5l-28.06 64.44c-4.87 11.2-17.9 16.32-29.09 11.45-16.37-7.13-26.14-23.12-26.14-39.91 0-5.79 1.16-11.68 3.62-17.33l21.4-49.15h-81.05c-22.73 0-40.33-19.87-37.6-42.44l4.13-33.99z"
            opacity="1" data-original="#ffbda9" class=""></path>
        <path fill="#a3a3a3"
            d="M512 15.001v82.01l-50.085 30.354-50.085-30.354v-81.21c0-8.22 6.61-14.91 14.83-15l70.17-.8c3.99-.04 7.87 1.52 10.72 4.33 2.85 2.82 4.45 6.66 4.45 10.67z"
            opacity="1" data-original="#4de1ff"></path>
        <path fill="#707070" d="M512 97.011v82.01c0 8.28-6.72 15-15 15h-70.17c-8.28 0-15-6.72-15-15v-82.01z" opacity="1"
            data-original="#2ea8e6" class=""></path>
        <path fill="#a3a3a3" d="M0 414.99v-82.01c0-8.28 6.72-15 15-15h70.17c8.28 0 15 6.72 15 15v82.01l-43.887 25.448z"
            opacity="1" data-original="#33ffbb" class=""></path>
        <path fill="#707070"
            d="M0 497v-82.01h100.17v81.21c0 8.22-6.61 14.91-14.83 15l-70.17.8c-3.99.04-7.87-1.52-10.72-4.33A15.004 15.004 0 0 1 0 497z"
            opacity="1" data-original="#29cccc" class=""></path>
    </g>
</svg>