<svg xmlns="http://www.w3.org/2000/svg" viewBox="0 0 448 512">
  <!-- Definición del gradiente -->
  <defs>
    <linearGradient id="gradiente2" x1="100%" y1="0%" x2="0%" y2="100%">
      <stop offset="0%" style="stop-color:#27EF9F;stop-opacity:1" />
      <stop offset="100%" style="stop-color:#0DB8DE;stop-opacity:1" />
    </linearGradient>
  </defs>

  <!-- Aplicación del gradiente al path -->
  <path fill="url(#gradiente2)" d="M144 144l0 48 160 0 0-48c0-44.2-35.8-80-80-80s-80 35.8-80 80zM80 192l0-48C80 64.5 144.5 0 224 0s144 64.5 144 144l0 48 16 0c35.3 0 64 28.7 64 64l0 192c0 35.3-28.7 64-64 64L64 512c-35.3 0-64-28.7-64-64L0 256c0-35.3 28.7-64 64-64l16 0z"/>
</svg>
